<svg xmlns="http://www.w3.org/2000/svg" viewBox="0 0 184 59.76"><defs><style>.cls-1{fill:#000;}</style></defs><title>logo-white</title><g id="Layer_2" data-name="Layer 2" fill="#0485a1"><g id="Layer_1-2" data-name="Layer 1"><path class="cls-1" d="M19.53,55.58l4.71-11.51c.45-1.17.94-2.32,1.2-3.18h2.44c-.59,1.07-1.29,2.62-1.9,4L19.63,59.76h-.4L12.86,44.93a38.73,38.73,0,0,0-1.92-4h2.62a30.12,30.12,0,0,0,1.18,3.18Z"/><path class="cls-1" d="M39.71,54.15c0,1.83.06,4,.12,4.82h-2.6c.06-.83.12-3,.12-4.82V45.32c0-1.83-.06-4-.12-4.82h2.6c-.06.8-.12,3-.12,4.82Z"/><path class="cls-1" d="M54.65,42.46v5.9h2.11c1.82,0,3.35,0,4.18-.09v2.14c-.83-.06-2.36-.09-4.18-.09h-2.5V57.4h2.42c1.9,0,3.83,0,4.65-.08v1.74c-.8-.06-2.67-.09-4.52-.09H52.18c.06-1.48.11-3.61.11-4.82V45.3c0-1.86,0-4-.11-4.8H56.8c1.85,0,3.7-.06,4.53-.12v2.2c-.83-.09-2.68-.12-4.53-.12Z"/><path class="cls-1" d="M78.38,59.37l-7-15.15a33.21,33.21,0,0,0-1.92-3.72h2.7c.3.86.78,2,1.35,3.2l5.31,11.92,2.94-6.85-2-4.53a23.38,23.38,0,0,0-1.92-3.74h2.51A36.41,36.41,0,0,0,81.75,44l1,2.34,1-2.42c.76-1.76,1.11-2.62,1.4-3.45h2.32a37.65,37.65,0,0,0-1.88,3.77l-2,4.23,3.08,7L91.7,44a34.88,34.88,0,0,0,1.46-3.53h2.37c-.51,1-.94,1.88-1.83,3.8L86.85,59.37h-.27l-3.94-8.6-3.93,8.6Z"/><path class="cls-1" d="M105.37,54.42c0,1.79,0,3.74.1,4.55h-2.18c.09-.83.11-2.83.11-4.66v-9c0-1.83,0-4-.11-4.82h3.86c4.1,0,6.34,2.26,6.34,5.39a5,5,0,0,1-3.64,5c2,2.43,4.26,6.07,6.39,8.09h-3.4a71.73,71.73,0,0,1-5.18-7.52,5.26,5.26,0,0,1-.87,0h-1.42Zm0-4.49h1.76a3.68,3.68,0,0,0,3.92-3.76c0-1.92-1.38-3.71-4.19-3.71h-1.49Z"/><path class="cls-1" d="M136,59c-.27-.78-.7-1.84-1.22-3.06l-1.35-3.23h-7.08l-1.33,3.18c-.6,1.43-1,2.38-1.19,3.11h-2.47a44.71,44.71,0,0,0,1.94-4.11l6.38-14.76h.63l6.46,14.76c.67,1.52,1.4,3,2,4.11ZM129.9,44.32l-2.77,6.79h5.55Z"/><path class="cls-1" d="M150.19,54.15c0,1.83.06,4,.11,4.82h-2.59c.06-.83.12-3,.12-4.82V45.32c0-1.83-.06-4-.12-4.82h2.59c-.05.8-.11,3-.11,4.82Z"/><path class="cls-1" d="M165.13,57h3.11c1.85,0,3.54,0,4.36-.09v2.17c-.82-.06-2.51-.12-4.36-.12h-5.58c.05-1.56.11-3.81.11-5.1V45.29c0-1.85-.06-4-.12-4.79h2.57c0,.8-.09,2.94-.09,4.79Z"/><path class="cls-1" d="M125.2,24H96l1.23-2.75H131l2.62-1.18H97.79L99,17.3h40.86c1.6-.69,3.16-1.34,4.67-2H99.84l1.4-3.14h51c2.67-1,5.15-1.94,7.46-2.75H102.58l1.49-3.15h66.09A109.06,109.06,0,0,1,184,3.23V2.75H105.48L106.76,0h-.88L92,25.87,78.12,0h-1l1.28,2.75H0v.49A108.66,108.66,0,0,1,13.8,6.29h66l1.49,3.15H24.17c2.32.81,4.8,1.72,7.46,2.75h51L84,15.33H39.34c1.51.63,3.07,1.28,4.67,2H84.82L86,20.05H50.25l2.62,1.18H86.59L87.82,24H58.7l2,.79H88.22v0l2.27,5.09h2.83l2.27-5.09v0h27.55Z"/></g></g></svg>